<svg width="266" height="266" viewBox="0 0 266 266" fill="none" xmlns="http://www.w3.org/2000/svg">
<g filter="url(#filter0_d_6_8)">
<path fill-rule="evenodd" clip-rule="evenodd" d="M132.086 126.546L106.504 27.1546L133.914 2L159.496 27.1546L143.05 88.5072L133.914 126.546H132.086Z" fill="black"/>
<path d="M134.523 135.135L132.695 131.454L105.894 229.618L133.914 256L158.887 229.618L149.751 200.783L143.05 170.72L135.132 137.589L134.523 135.135Z" fill="black"/>
<path d="M144.878 135.749L136.35 129L135.741 129.614L134.586 130.777L185.688 219.188H222.235V181.763L160.715 144.952L144.878 135.749Z" fill="black"/>
<path d="M149.751 125.319L136.35 127.773L134.523 127.159L135.741 128.386V129.614L136.35 129L233.199 155.382L260 129.614L233.199 103.232L149.751 125.319Z" fill="black"/>
<path d="M185.688 38.8116L134.523 126.546H136.35L152.796 117.343L222.235 77.4638V38.8116H185.688Z" fill="black"/>
<path d="M43.1559 219.188H81.53V216.734L125.386 142.498L128.432 138.203L130.868 133.908L132.086 131.454H129.21L43.1559 181.763V219.188Z" fill="black"/>
<path d="M32.801 155.382L130.259 129.614V128.386L32.801 103.232L6 129.614L32.801 155.382Z" fill="black"/>
<path d="M124.168 124.092L130.259 127.159L130.868 126.853L132.086 126.546L81.53 38.8116H43.1559V77.4638L124.168 124.092Z" fill="black"/>
<path d="M132.086 126.546L106.504 27.1546L133.914 2L159.496 27.1546L143.05 88.5072L133.914 126.546H132.086ZM132.086 126.546L81.53 38.8116H43.1559V77.4638L124.168 124.092L130.259 127.159M132.086 126.546L130.868 126.853M136.35 129L233.199 155.382L260 129.614L233.199 103.232L149.751 125.319L136.35 127.773L134.523 127.159L135.741 128.386M136.35 129L144.878 135.749L160.715 144.952L222.235 181.763V219.188H185.688L134.586 130.777M136.35 129L135.741 129.614M136.35 129L134.586 130.777M135.741 128.386V129.614M135.741 128.386H134.523L133.914 127.773V127.159H132.695L134.523 135.135M135.741 129.614L134.586 130.777M134.523 135.135L135.132 137.589L143.05 170.72L149.751 200.783L158.887 229.618L133.914 256L105.894 229.618L132.695 131.454M134.523 135.135L132.695 131.454M132.695 131.454L81.53 219.188M81.53 219.188H43.1559M81.53 219.188V216.734L125.386 142.498L128.432 138.203L130.868 133.908M43.1559 219.188V181.763L129.21 131.454M43.1559 219.188L80.3118 216.734M130.259 130.841V129.614M130.259 130.841L132.086 130.227M130.259 130.841L129.21 131.454M130.259 129.614L32.801 155.382L6 129.614L32.801 103.232L130.259 128.386M130.259 129.614L132.086 130.227M130.259 129.614V128.386M130.259 128.386V127.159M130.259 127.159L130.868 126.853M132.086 130.227V131.454M134.586 130.777L133.914 131.454V129.614L134.586 130.777ZM132.086 131.454H129.21M132.086 131.454L130.868 133.908M130.868 133.908L129.21 131.454M130.868 126.546H131.477L130.868 126.853M185.688 38.8116L134.523 126.546H136.35L152.796 117.343L222.235 77.4638V38.8116H185.688Z" stroke="black" stroke-width="2"/>
<path d="M130.868 127.773H132.086V129H130.868V127.773Z" fill="black" stroke="black"/>
</g>
<defs>
<filter id="filter0_d_6_8" x="0.565918" y="0.620911" width="264.868" height="264.791" filterUnits="userSpaceOnUse" color-interpolation-filters="sRGB">
<feFlood flood-opacity="0" result="BackgroundImageFix"/>
<feColorMatrix in="SourceAlpha" type="matrix" values="0 0 0 0 0 0 0 0 0 0 0 0 0 0 0 0 0 0 127 0" result="hardAlpha"/>
<feOffset dy="4"/>
<feGaussianBlur stdDeviation="2"/>
<feComposite in2="hardAlpha" operator="out"/>
<feColorMatrix type="matrix" values="0 0 0 0 0 0 0 0 0 0 0 0 0 0 0 0 0 0 0.25 0"/>
<feBlend mode="normal" in2="BackgroundImageFix" result="effect1_dropShadow_6_8"/>
<feBlend mode="normal" in="SourceGraphic" in2="effect1_dropShadow_6_8" result="shape"/>
</filter>
</defs>
</svg>
